<svg width="884" height="717" viewBox="0 0 884 717" fill="none" xmlns="http://www.w3.org/2000/svg">
<path d="M408.901 218.02C414.987 214.761 417.278 207.185 414.02 201.099C410.761 195.013 403.185 192.722 397.099 195.98L408.901 218.02ZM374.138 222.455L368.238 211.435L367.643 211.753L367.086 212.134L374.138 222.455ZM347 241L354.053 251.32L381.191 232.775L374.138 222.455L367.086 212.134L339.947 230.68L347 241ZM374.138 222.455L380.039 233.474L408.901 218.02L403 207L397.099 195.98L368.238 211.435L374.138 222.455Z" fill="#1E3655"/>
<path d="M110 220C180.657 240.68 219.692 254.859 288 286" stroke="#E76E1A" stroke-width="25" stroke-linecap="round"/>
<path d="M110 282C180.657 302.993 217.932 324.039 288 349" stroke="#E76E1A" stroke-width="25" stroke-linecap="round"/>
<path d="M109 345C178.384 369.532 226.519 382.443 292 413" stroke="#E76E1A" stroke-width="25" stroke-linecap="round"/>
<path d="M106 424C176.368 448.938 218.067 466.438 288 494" stroke="#E76E1A" stroke-width="25" stroke-linecap="round"/>
<path d="M106 484C176.161 508.062 216.438 526 284 554" stroke="#E76E1A" stroke-width="25" stroke-linecap="round"/>
<path d="M60 93C60 93 155.684 112.906 212.38 139.862C271.895 168.158 350 237.491 350 237.491V697" stroke="#1E3655" stroke-width="35" stroke-linecap="round" stroke-linejoin="round"/>
<path d="M27.8158 126C27.8158 126 20 554.73 20 570.818C20 586.906 105.974 597.777 251 673" stroke="#E76E1A" stroke-width="40" stroke-linecap="round" stroke-linejoin="round"/>
<mask id="path-9-inside-1_40_2" fill="white">
<path d="M605.277 563.334C611.266 571.148 609.811 582.457 601.257 587.33C586.471 595.752 570.164 601.327 553.19 603.7C530.298 606.9 506.964 604.168 485.44 595.768C463.916 587.367 444.928 573.581 430.31 555.74C415.691 537.9 405.934 516.606 401.981 493.915C398.028 471.223 400.012 447.899 407.742 426.194C415.471 404.489 428.685 385.135 446.109 370C463.533 354.864 484.578 344.459 507.214 339.786C524.018 336.318 541.277 336.096 558.066 339.073C567.74 340.788 572.908 350.923 569.915 360.281C566.931 369.61 556.947 374.591 547.233 373.334C536.352 371.925 525.27 372.327 514.446 374.561C497.809 377.995 482.341 385.643 469.535 396.767C456.729 407.891 447.017 422.116 441.335 438.069C435.654 454.022 434.196 471.164 437.102 487.842C440.007 504.519 447.178 520.17 457.922 533.282C468.667 546.395 482.622 556.527 498.442 562.701C514.262 568.876 531.411 570.884 548.237 568.531C559.182 567.001 569.749 563.66 579.515 558.683C588.242 554.236 599.318 555.56 605.277 563.334Z"/>
</mask>
<path d="M605.277 563.334C611.266 571.148 609.811 582.457 601.257 587.33C586.471 595.752 570.164 601.327 553.19 603.7C530.298 606.9 506.964 604.168 485.44 595.768C463.916 587.367 444.928 573.581 430.31 555.74C415.691 537.9 405.934 516.606 401.981 493.915C398.028 471.223 400.012 447.899 407.742 426.194C415.471 404.489 428.685 385.135 446.109 370C463.533 354.864 484.578 344.459 507.214 339.786C524.018 336.318 541.277 336.096 558.066 339.073C567.74 340.788 572.908 350.923 569.915 360.281C566.931 369.61 556.947 374.591 547.233 373.334C536.352 371.925 525.27 372.327 514.446 374.561C497.809 377.995 482.341 385.643 469.535 396.767C456.729 407.891 447.017 422.116 441.335 438.069C435.654 454.022 434.196 471.164 437.102 487.842C440.007 504.519 447.178 520.17 457.922 533.282C468.667 546.395 482.622 556.527 498.442 562.701C514.262 568.876 531.411 570.884 548.237 568.531C559.182 567.001 569.749 563.66 579.515 558.683C588.242 554.236 599.318 555.56 605.277 563.334Z" stroke="#1E3655" stroke-width="70" stroke-linejoin="round" mask="url(#path-9-inside-1_40_2)"/>
<mask id="path-10-inside-2_40_2" fill="white">
<path d="M590.635 579.324C593.778 585.159 601.092 587.384 606.623 583.733C627.05 570.245 643.467 551.377 653.995 529.109C666.239 503.214 669.874 474.08 664.371 445.969C658.867 417.859 644.512 392.247 623.407 372.881C605.259 356.228 582.938 344.944 558.932 340.156C552.433 338.86 546.498 343.679 545.787 350.268L544.547 361.765C543.836 368.354 548.629 374.199 555.084 375.704C571.543 379.543 586.811 387.566 599.363 399.084C614.875 413.318 625.425 432.142 629.47 452.802C633.515 473.463 630.843 494.876 621.844 513.908C614.563 529.309 603.448 542.498 589.652 552.261C584.242 556.089 582.007 563.31 585.15 569.144L590.635 579.324Z"/>
</mask>
<path d="M590.635 579.324C593.778 585.159 601.092 587.384 606.623 583.733C627.05 570.245 643.467 551.377 653.995 529.109C666.239 503.214 669.874 474.08 664.371 445.969C658.867 417.859 644.512 392.247 623.407 372.881C605.259 356.228 582.938 344.944 558.932 340.156C552.433 338.86 546.498 343.679 545.787 350.268L544.547 361.765C543.836 368.354 548.629 374.199 555.084 375.704C571.543 379.543 586.811 387.566 599.363 399.084C614.875 413.318 625.425 432.142 629.47 452.802C633.515 473.463 630.843 494.876 621.844 513.908C614.563 529.309 603.448 542.498 589.652 552.261C584.242 556.089 582.007 563.31 585.15 569.144L590.635 579.324Z" stroke="#E76E1A" stroke-width="70" stroke-linejoin="round" mask="url(#path-10-inside-2_40_2)"/>
<path d="M530 414V478H586" stroke="#1E3655" stroke-width="35" stroke-linecap="round" stroke-linejoin="round"/>
<path d="M461.439 135L430 235.529C430 235.529 478.967 248.222 506.114 264.901C532.051 280.837 564.414 324 564.414 324C564.414 324 618.671 296.752 655.034 293.86C688.949 291.163 741.903 300.48 741.903 300.48L763 197.469L591.743 213.603L461.439 135Z" fill="#1E3655" stroke="#1E3655" stroke-width="35" stroke-linecap="round"/>
<g filter="url(#filter0_f_40_2)">
<path d="M426 246C426 246 475.377 260.231 502.202 276.625C530.6 293.98 562.293 337 562.293 337C562.293 337 608.961 309.935 644.591 305.938C681.157 301.835 743 310.75 743 310.75" stroke="black" stroke-opacity="0.6" stroke-width="25" stroke-linecap="round" stroke-linejoin="round"/>
</g>
<path d="M465 115C465 115 511.892 132.601 538.677 148.874C567.032 166.102 607.609 191 607.609 191C607.609 191 656.816 188.454 692.391 184.486C728.903 180.413 775 180.143 775 180.143" stroke="#90B4D7" stroke-width="35" stroke-linecap="round" stroke-linejoin="round"/>
<path d="M709.321 333.75L703.245 622.934C703.245 622.934 662.131 624.98 635.971 628.145C610.051 631.28 570 639 570 639M843 177L840.396 337.658" stroke="#1E3655" stroke-width="30" stroke-linecap="round" stroke-linejoin="round"/>
<path d="M384 58.1026L644.975 18L866 162.282L616.75 171L384 58.1026Z" fill="#1E3655" stroke="#1E3655" stroke-width="35" stroke-linecap="round" stroke-linejoin="round"/>
<path d="M840 286L840 327" stroke="#E76E1A" stroke-width="56" stroke-linecap="round" stroke-linejoin="round"/>
<ellipse cx="626.5" cy="100" rx="29.5" ry="22" fill="#E76E1A"/>
<path d="M58.1295 92L49 555.614C49 555.614 144.8 588.144 202.898 616.879C259.417 644.834 341.145 699 341.145 699C341.145 699 385.012 677.746 414.615 668.15C440.388 659.796 482 651.639 482 651.639" stroke="#1E3655" stroke-width="35" stroke-linecap="round" stroke-linejoin="round"/>
<path d="M421 259C421 259 468.346 272.667 495.142 288.91C523.508 306.105 557.142 360 557.142 360C557.142 360 612.469 324.081 648.059 320.12C684.585 316.055 742 325.322 742 325.322" stroke="#E76E1A" stroke-width="35" stroke-linecap="round" stroke-linejoin="round"/>
<defs>
<filter id="filter0_f_40_2" x="393.097" y="213.097" width="382.805" height="156.804" filterUnits="userSpaceOnUse" color-interpolation-filters="sRGB">
<feFlood flood-opacity="0" result="BackgroundImageFix"/>
<feBlend mode="normal" in="SourceGraphic" in2="BackgroundImageFix" result="shape"/>
<feGaussianBlur stdDeviation="10.2" result="effect1_foregroundBlur_40_2"/>
</filter>
</defs>
</svg>
